# xmcd
#
# Track frame offsets:
#	150
#	9238
#	33197
#	46648
#	61319
#	74220
#	95610
#	110663
#	136773
#	159201
#	185164
#	198522
#
# Disc length: 2761 seconds
#
# Revision: 0
# Processed by: cddbd v1.5.2PL0 Copyright (c) Steve Scherf et al.
# Submitted via: audiograbber 1.83.01
#
DISCID=9f0ac70c
DTITLE=Knister - Hexe Lilli - wird Detektivin
DYEAR=2008
DGENRE=Hörspiel
TTITLE0=Schnee von gestern
TTITLE1=Knete, Fisch und Schokolade
TTITLE2=Kriminalinspektor Leon
TTITLE3=Fingerabdrücke
TTITLE4=Verbrecherkartei
TTITLE5=Spürnasen
TTITLE6=Pferdemist und Knoblauch
TTITLE7=Kopfstand im Schlafzimmer
TTITLE8=Fahrraddieben auf der Spur
TTITLE9=Ermittlungen im Fundbüro
TTITLE10=Auflösung des Falls 
TTITLE11=Verrückte Sachen im Rathaus
EXTD=
EXTT0=
EXTT1=
EXTT2=
EXTT3=
EXTT4=
EXTT5=
EXTT6=
EXTT7=
EXTT8=
EXTT9=
EXTT10=
EXTT11=
PLAYORDER=
